<svg width="380" height="97" viewBox="0 0 380 97" fill="none" xmlns="http://www.w3.org/2000/svg">
<g clip-path="url(#clip0_359_3202)">
<path d="M54.5 20.45L53.3 17.25C53.3 17.25 52.8 15.75 52.5 15.35C52.4 15.15 52.1 14.85 51.9 14.55C50.7 13.35 48.9 12.75 47.4 13.25C46.4 13.55 45.5 13.95 45.5 13.95L42.3 15.35C41.3 15.85 40.2 16.15 39.1 16.35C36.8 16.85 34.5 16.85 32.3 16.35C31.2 16.15 30.1 15.75 29.1 15.35L26.1 14.05C26.1 14.05 24.4 13.25 23.8 13.05C22.3 12.65 20.7 13.25 19.5 14.45C19.3 14.65 19 15.05 18.9 15.35C18.6 15.85 18.2 17.25 18.2 17.25L17 20.45C16.6 21.55 16.1 22.45 15.5 23.45C16.4 23.25 17.4 23.35 18.4 23.85L23.1 25.95L27.1 27.65L27.3 27.75L32 29.75C34.4 30.75 37.1 30.75 39.5 29.75L44.3 27.65L44.5 27.55L48.5 25.85L53.2 23.75C54.3 23.25 55.2 23.15 56.1 23.35C55.4 22.45 54.9 21.45 54.5 20.45Z" fill="#C3C9CB"/>
<path d="M63.7999 67.25L66.9999 66.05L68.8999 65.25C69.1999 65.05 69.3999 64.85 69.5999 64.65C70.7999 63.45 71.2999 61.75 70.8999 60.15L70.0999 58.35L68.6999 55.15C68.1999 54.15 67.8999 53.05 67.6999 51.95C67.1999 49.65 67.1999 47.35 67.6999 45.15C67.8999 44.05 68.2999 42.95 68.6999 41.95L69.9999 38.95L70.9999 36.65C71.1999 35.15 70.7999 33.55 69.5999 32.35C69.3999 32.15 69.1999 31.95 68.9999 31.85L66.7999 30.95L63.7999 29.75C62.6999 29.35 61.7999 28.85 60.7999 28.25C60.9999 29.15 60.8999 30.15 60.3999 31.15L58.2999 35.85L56.5999 39.85L56.4999 40.05L54.3999 44.85C53.3999 47.25 53.3999 49.95 54.3999 52.35L56.4999 57.15L56.5999 57.35L58.2999 61.35L60.3999 66.05C60.8999 67.15 60.9999 68.05 60.7999 68.95C61.7999 68.25 62.7999 67.75 63.7999 67.25Z" fill="#C3C9CB"/>
<path d="M16.8999 76.65L18.0999 79.85C18.0999 79.85 18.5999 81.35 18.8999 81.75C18.9999 81.95 19.2999 82.25 19.4999 82.55C20.6999 83.75 22.4999 84.35 23.9999 83.85C24.9999 83.55 25.8999 83.15 25.8999 83.15L29.0999 81.75C30.0999 81.25 31.1999 80.95 32.2999 80.75C34.5999 80.25 36.8999 80.25 39.0999 80.75C40.1999 80.95 41.2999 81.35 42.2999 81.75L45.2999 83.05C45.2999 83.05 46.9999 83.85 47.5999 84.05C49.0999 84.45 50.6999 83.85 51.8999 82.65C52.0999 82.45 52.3999 82.05 52.4999 81.75C52.7999 81.25 53.1999 79.85 53.1999 79.85L54.3999 76.75C54.7999 75.65 55.2999 74.75 55.8999 73.75C54.9999 73.95 53.9999 73.85 52.9999 73.35L48.2999 71.25L44.2999 69.55L44.0999 69.45L39.2999 67.35C36.8999 66.35 34.1999 66.35 31.7999 67.35L26.9999 69.45V69.45L22.9999 71.15L18.2999 73.25C17.1999 73.75 16.2999 73.85 15.3999 73.65C15.9999 74.55 16.4999 75.55 16.8999 76.65Z" fill="#C3C9CB"/>
<path d="M7.59994 29.75L4.39994 30.95L2.49994 31.75C2.19994 31.95 1.99994 32.15 1.79994 32.35C0.599941 33.55 0.0999407 35.25 0.499941 36.85L1.29994 38.65L2.69994 41.85C3.19994 42.85 3.49994 43.95 3.69994 45.05C4.19994 47.35 4.19994 49.65 3.69994 51.85C3.49994 52.95 3.09994 54.05 2.69994 55.05L1.39994 58.05L0.399941 60.35C0.199941 61.85 0.599941 63.45 1.79994 64.65C1.99994 64.85 2.19994 65.05 2.39994 65.15L4.59994 66.05L7.69994 67.25C8.79994 67.65 9.69994 68.15 10.6999 68.75C10.4999 67.85 10.5999 66.85 11.0999 65.85L13.1999 61.15L14.8999 57.15L14.9999 56.95L17.0999 52.15C18.0999 49.75 18.0999 47.05 17.0999 44.65L14.9999 39.85L14.8999 39.65L13.1999 35.65L10.9999 31.15C10.4999 30.05 10.3999 29.15 10.5999 28.25C9.69994 28.75 8.69994 29.35 7.59994 29.75Z" fill="#C3C9CB"/>
<path d="M29.1 15.05L26 13.65C26 13.65 24.6 12.95 24.1 12.85C23.8 12.75 23.4 12.75 23.1 12.75C21.3 12.75 19.7 13.65 19 15.05C18.5 15.95 18.2 16.85 18.2 16.85L16.9 20.05C16.5 21.15 16 22.15 15.4 23.05C14.1 25.05 12.5 26.65 10.5 27.95C9.6 28.55 8.6 29.05 7.5 29.55L4.5 30.75C4.5 30.75 2.7 31.35 2.2 31.65C0.7 32.45 0 34.05 0 35.75C0 36.05 0.1 36.55 0.2 36.85C0.3 37.35 1 38.75 1 38.75L2.4 41.85C2.8 42.65 3.1 43.55 3.3 44.45C3.4 44.65 3.7 44.75 3.8 44.55C4.3 44.05 4.9 43.55 5.8 43.25L10.6 41.35L14.7 39.75L14.9 39.65L19.8 37.75C22.2 36.75 24.2 34.85 25.1 32.45L27 27.55L27.1 27.35L28.7 23.25L30.6 18.45C30.9 17.65 31.4 16.95 31.9 16.45C32.1 16.25 32 15.95 31.8 15.95C30.8 15.75 30 15.45 29.1 15.05Z" fill="#DDE1E2"/>
<path d="M69.2001 41.85L70.6001 38.65L71.4001 36.75C71.5001 36.45 71.5001 36.15 71.5001 35.75C71.5001 33.95 70.6001 32.45 69.2001 31.55L67.3001 30.85L64.1001 29.55C63.0001 29.15 62.0001 28.65 61.1001 28.05C59.1001 26.75 57.5001 25.15 56.2001 23.15C55.6001 22.25 55.1001 21.25 54.6001 20.15L53.4001 17.15L52.5001 14.85V14.75C51.6001 13.55 50.1001 12.75 48.5001 12.75C48.2001 12.75 47.9001 12.75 47.7001 12.85L45.5001 13.75L42.4001 15.15C41.6001 15.55 40.7001 15.85 39.8001 16.05C39.6001 16.15 39.5001 16.45 39.7001 16.55C40.2001 17.05 40.7001 17.65 41.0001 18.55L42.9001 23.35L44.5001 27.45L44.6001 27.65L46.5001 32.55C47.5001 34.95 49.4001 36.95 51.8001 37.85L56.7001 39.75L56.9001 39.85L61.0001 41.45L65.8001 43.35C66.6001 43.65 67.3001 44.15 67.8001 44.65C68.0001 44.85 68.3001 44.75 68.3001 44.55C68.5001 43.55 68.8001 42.75 69.2001 41.85Z" fill="#DDE1E2"/>
<path d="M42.4001 81.95L45.6001 83.35C45.6001 83.35 47.0001 84.05 47.5001 84.15C47.7001 84.25 48.2001 84.25 48.5001 84.25C50.3001 84.25 51.9001 83.35 52.6001 81.95C53.1001 81.05 53.4001 80.15 53.4001 80.15L54.7001 76.95C55.1001 75.85 55.6001 74.85 56.2001 73.95C57.5001 71.95 59.1001 70.35 61.1001 69.05C62.0001 68.45 63.0001 67.95 64.1001 67.45L67.1001 66.25C67.1001 66.25 68.9001 65.65 69.4001 65.35C70.8001 64.65 71.5001 62.95 71.5001 61.35C71.5001 61.05 71.4001 60.55 71.3001 60.25C71.1001 59.65 70.4001 58.35 70.4001 58.35L69.0001 55.25C68.6001 54.45 68.3001 53.55 68.1001 52.65C68.0001 52.45 67.7001 52.35 67.6001 52.55C67.1001 53.05 66.5001 53.55 65.6001 53.85L60.8001 55.75L56.7001 57.35L56.5001 57.45L51.6001 59.35C49.2001 60.35 47.2001 62.25 46.3001 64.65L44.4001 69.55L44.3001 69.75L42.9001 73.75L41.0001 78.55C40.7001 79.35 40.2001 80.05 39.7001 80.55C39.5001 80.75 39.6001 81.05 39.8001 81.05C40.7001 81.25 41.6001 81.55 42.4001 81.95Z" fill="#DDE1E2"/>
<path d="M2.3 55.15L0.9 58.35L0.1 60.25C0 60.55 0 60.85 0 61.25C0 63.05 0.9 64.55 2.3 65.45L4.2 66.15L7.4 67.45C8.5 67.85 9.5 68.35 10.4 68.95C12.4 70.25 14 71.85 15.3 73.85C15.9 74.75 16.4 75.75 16.9 76.85L18.1 79.85L19 82.15V82.25C19.9 83.45 21.4 84.25 23 84.25C23.3 84.25 23.6 84.25 23.8 84.15L26 83.25L29.1 81.85C29.9 81.45 30.8 81.15 31.7 80.95C31.9 80.85 32 80.55 31.8 80.45C31.3 79.95 30.8 79.35 30.5 78.45L28.6 73.65L27 69.55L26.9 69.35L25 64.55C24 62.15 22.1 60.15 19.7 59.25L14.8 57.35L14.6 57.25L10.5 55.65L5.7 53.75C4.9 53.45 4.2 52.95 3.7 52.45C3.5 52.25 3.2 52.35 3.2 52.55C3 53.45 2.7 54.35 2.3 55.15Z" fill="#DDE1E2"/>
</g>
<path d="M109.354 30.7371C109.354 33.6906 111.183 40.8633 114.839 52.2553L117.09 59.2874L117.582 59.1468C117.629 58.1623 120.535 48.5049 126.302 30.1745C126.302 29.7057 126.044 29.2603 125.528 28.8384C125.012 28.3696 124.473 28.0649 123.911 27.9242L124.122 26.9397C126.466 27.1273 129.677 27.221 133.756 27.221C137.834 27.221 141.093 27.0335 143.53 26.6585L143.882 28.4165C141.632 29.1197 139.358 29.6119 137.061 29.8932C136.826 31.0184 136.709 33.0342 136.709 35.9408C136.709 38.8006 137.084 44.5669 137.834 53.2398C138.631 61.9127 139.358 67.679 140.014 70.5388C142.499 70.7732 145.077 71.2185 147.75 71.8749L147.539 73.5626C144.069 73.1875 140.319 73 136.287 73C132.256 73 128.997 73.1875 126.513 73.5626L126.231 71.8045C128.341 71.1482 130.591 70.656 132.982 70.3278C132.982 65.8741 132.724 59.7328 132.209 51.9037C131.693 44.0746 131.037 37.3707 130.24 31.7919L130.029 31.7216C123.325 50.2863 119.809 61.5846 119.481 65.6163C116.433 67.4446 114.16 69.2261 112.659 70.9607L111.816 70.3981C111.909 69.3667 111.956 68.5932 111.956 68.0775C111.956 62.5925 108.886 50.4738 102.744 31.7216L102.463 31.7919L100.283 47.1922C99.3453 53.8961 98.8765 59.9437 98.8765 65.335C98.8765 67.0696 99.064 68.4995 99.4391 69.6246C99.861 70.7497 100.681 71.6405 101.9 72.2968L101.619 73.2813C100.166 73.0938 97.681 73 94.165 73C90.6958 73 87.5783 73.1875 84.8123 73.5626L84.531 71.8045C86.6406 71.1482 88.8909 70.656 91.2818 70.3278L99.1578 31.0887C93.6259 31.0887 90.0864 31.8388 88.5393 33.339C88.2111 33.9953 88.0471 35.0267 88.0471 36.4331C88.0471 37.8395 88.2815 38.8006 88.7503 39.3162L88.68 39.8085C87.5079 40.5117 86.3359 41.4962 85.1639 42.762C84.6013 42.7151 84.156 42.4807 83.8278 42.0588C83.4528 41.6368 83.2652 41.1446 83.2652 40.582C83.2652 38.2849 84.6482 35.5423 87.4142 32.3545C90.1801 29.1666 92.7586 27.1507 95.1495 26.3069C95.5245 26.3069 97.2122 26.4709 100.213 26.7991C103.213 27.0804 105.534 27.221 107.174 27.221C108.862 27.221 110.456 27.0804 111.956 26.7991L112.237 28.5571C110.315 29.3072 109.354 30.0339 109.354 30.7371ZM165.726 73.8439C161.085 73.8439 157.334 72.3906 154.475 69.484C151.615 66.5305 150.185 62.5925 150.185 57.67C150.185 52.7476 151.685 48.1298 154.686 43.8168C157.686 39.5038 161.6 36.7378 166.429 35.5189C171.258 35.5189 174.938 36.9019 177.47 39.6678C180.001 42.3869 181.267 46.278 181.267 51.3411C181.267 56.4042 179.884 60.9751 177.118 65.0537C174.399 69.1323 170.602 72.0624 165.726 73.8439ZM164.53 39.8085C162.421 39.8085 160.593 40.3945 159.045 41.5665C157.123 44.8482 156.162 48.9737 156.162 53.943C156.162 59.6625 157.756 64.0458 160.944 67.093C162.632 68.7339 164.624 69.5543 166.921 69.5543C169.219 69.5543 171.07 68.9448 172.477 67.7259C174.352 64.4443 175.29 60.436 175.29 55.701C175.29 50.9661 174.446 47.1453 172.758 44.2387C171.07 41.2852 168.328 39.8085 164.53 39.8085ZM204.173 73.4922C201.736 73.1641 198.993 73 195.946 73C192.945 73 190.25 73.1875 187.859 73.5626L187.578 71.7342C189.078 71.2654 190.484 70.9138 191.797 70.6794C192.219 67.0227 192.43 62.2409 192.43 56.3339V53.0288C192.43 46.7468 192.195 41.9181 191.727 38.5427C190.461 38.4021 188.937 38.027 187.156 37.4176L187.367 35.5892C190.039 36.1049 192.828 36.3628 195.735 36.3628C198.688 36.3628 200.798 36.1987 202.064 35.8705L202.204 37.066C200.939 37.3941 200.306 37.9333 200.306 38.6834C200.306 39.2459 200.845 40.4414 201.923 42.2697C203.048 44.0512 204.127 45.7858 205.158 47.4735C208.252 52.3959 211.909 58.4436 216.128 65.6163L216.339 65.4757V56.8965C216.339 50.6145 216.011 45.903 215.354 42.762C214.698 39.5741 213.573 37.7223 211.979 37.2066L212.12 36.0112C213.339 36.2456 215.167 36.3628 217.605 36.3628C220.042 36.3628 222.551 36.1049 225.129 35.5892L225.34 37.4176C223.418 38.027 221.801 38.4021 220.488 38.5427C220.019 42.2932 219.785 47.1219 219.785 53.0288V56.3339C219.785 63.4598 220.019 68.2885 220.488 70.82C222.457 71.1482 224.027 71.5233 225.199 71.9452L224.988 73.7735C222.644 73.2578 220.441 73 218.378 73C216.315 73 214.722 73.0938 213.596 73.2813C213.596 72.2499 212.87 70.5153 211.416 68.0775C210.01 65.6397 208.721 63.4832 207.549 61.608C203.751 55.4666 200.024 49.2315 196.368 42.9026L196.086 43.0433V52.4663C196.086 61.7955 196.79 67.8666 198.196 70.6794C200.306 70.9138 202.368 71.2654 204.384 71.7342L204.173 73.4922ZM235.777 67.6556C237.934 68.5463 240.067 68.9917 242.176 68.9917C244.286 68.9917 245.974 68.4995 247.24 67.515C248.505 66.5305 249.138 65.124 249.138 63.2957C249.138 61.4205 246.489 59.0999 241.192 56.3339C239.176 55.3025 237.324 54.0602 235.637 52.6069C233.996 51.1067 233.175 49.63 233.175 48.1767C233.175 45.692 234.488 43.1839 237.113 40.6523C239.739 38.1208 242.434 36.4096 245.2 35.5189C248.669 35.5189 251.81 35.8705 254.623 36.5737V37.8395C252.654 39.8085 251.553 42.5041 251.318 45.9264H249.56C249.56 44.6138 249.443 42.9729 249.208 41.0039C247.568 40.2539 245.81 39.8788 243.934 39.8788C242.059 39.8788 240.489 40.3007 239.223 41.1446C238.004 41.9416 237.395 43.1136 237.395 44.6606C237.395 45.7389 238.215 46.9109 239.856 48.1767C241.544 49.4425 243.372 50.5676 245.341 51.5521C247.31 52.5366 249.115 53.7555 250.756 55.2088C252.443 56.6621 253.287 58.1154 253.287 59.5687C253.287 62.3815 252.045 65.1944 249.56 68.0072C247.075 70.7732 244.333 72.7187 241.333 73.8439C238.379 73.8439 235.613 73.4922 233.035 72.789C232.285 73.1172 231.511 73.6563 230.714 74.4064L229.448 73.4922C232.074 70.6325 233.527 67.093 233.808 62.8738H235.566C235.566 64.5146 235.637 66.1085 235.777 67.6556ZM283.544 40.1601C281.904 39.3631 280.333 38.9646 278.833 38.9646C277.333 38.9646 276.325 39.0584 275.809 39.2459C275.434 41.7775 275.246 46.6765 275.246 53.943C275.246 61.2095 275.504 66.7883 276.02 70.6794C278.13 70.9138 280.075 71.2654 281.857 71.7342L281.646 73.4922C279.208 73.1641 276.395 73 273.207 73C270.066 73 267.3 73.1875 264.909 73.5626L264.628 71.7342C265.566 71.4529 267.183 71.1013 269.48 70.6794C269.902 67.304 270.113 62.5222 270.113 56.3339V53.0288C270.113 49.7472 269.855 45.1529 269.34 39.2459C268.824 39.0584 267.863 38.9646 266.456 38.9646C265.05 38.9646 263.55 39.2928 261.956 39.9491C261.487 41.4024 261.159 43.348 260.971 45.7858H259.143C259.143 41.9416 258.51 38.9646 257.244 36.855L257.596 35.6596C261.206 36.1284 266.269 36.3628 272.785 36.3628C279.302 36.3628 284.552 36.1049 288.537 35.5892L288.959 36.9253C287.787 38.238 286.99 39.5272 286.568 40.793C286.146 42.0119 285.888 43.6761 285.795 45.7858H284.037C283.708 44.2387 283.544 42.3635 283.544 40.1601Z" fill="#C3C9CB"/>
<defs>
<clipPath id="clip0_359_3202">
<rect width="71.5" height="71.5" fill="white" transform="translate(0 12.75)"/>
</clipPath>
</defs>
</svg>
