<svg width="380" height="97" viewBox="0 0 380 97" fill="none" xmlns="http://www.w3.org/2000/svg">
<g clip-path="url(#clip0_359_3203)">
<path d="M33.1 66.5L32.2 64.3C31 61.2 28.6 58.8 25.5 57.6L23.3 56.7L22.4 56.3L17.3 54.3L16.2 53.9L10.9 51.8L6.6 50.1C5.9 49.8 5.5 49.3 5.5 48.5C5.5 47.8 5.9 47.2 6.6 46.9L10.9 45.2L16.2 43.1L17.3 42.7L15.2 37.8L15.1 37.6L10 39.6L4 42C2.5 42.6 1.5 43.4 0.9 44.5C0.3 45.5 0 46.9 0 48.5C0 50.1 0.3 51.5 0.9 52.6C1.5 53.7 2.5 54.5 4 55L10 57.4L15.1 59.4L15.3 59.5L20.2 61.4L21.9 57.5L20.2 61.4L21.3 61.8C24.4 63 26.8 65.4 28 68.5L28.4 69.6L33.5 67.4L33.1 66.5Z" fill="#DDE1E2"/>
<path d="M72.3 70.2999L69.6999 64.3999L67.5 59.3999L67.4 59.1999L65.3 54.2999L63.0999 55.1999L65.3 54.2999L64.8 53.2999C63.5 50.2999 63.5 46.7999 64.8 43.7999L65.3 42.7999L60.0999 40.7999L59.7 41.6999L58.7999 43.8999C57.4999 46.8999 57.4999 50.3999 58.7999 53.3999L59.7 55.5999L60.0999 56.4999L62.2999 61.5999L64.5999 60.6999L62.2999 61.5999L62.7999 62.6999L65.0999 67.8999L67 72.1999C67.3 72.8999 67.1999 73.4999 66.5999 73.9999C66.0999 74.4999 65.5 74.5999 64.8 74.3999L60.5 72.4999L55.2999 70.1999L54.2 69.6999L52.2999 74.5999L52.2 74.7999L57.2 76.9999L63.0999 79.5999C64.4999 80.1999 65.9 80.3999 67 80.0999C68.2 79.7999 69.3 78.9999 70.5 77.8999C71.7 76.6999 72.3999 75.5999 72.6999 74.3999C73.0999 72.9999 72.9 71.6999 72.3 70.2999Z" fill="#C3C9CB"/>
<path d="M50.2 17.2L47.7999 11.2C47.1999 9.69995 46.4 8.69995 45.4 8.09995C44.3 7.49995 42.9999 7.19995 41.2999 7.19995C39.6999 7.19995 38.3 7.49995 37.2 8.09995C36.1 8.69995 35.2999 9.69995 34.7999 11.2L32.4 17.2L30.4 22.3L30.6 22.4L33.7999 23.8L30.6 22.4L30.4 22.3L30.2999 22.5L28.4 27.4L28 28.5C26.8 31.6 24.3999 34 21.2999 35.2L20.2 35.6L22.4 40.7L23.2999 40.2999L25.5 39.4C28.6 38.2 31 35.8 32.2 32.7L33.0999 30.5L33.5 29.6L32.0999 29L33.5 29.6L35.5 24.4L35.9 23.3L38 18L39.7 13.7C40 13 40.4999 12.6 41.2999 12.6H41.4C42.1 12.6 42.7 13 43 13.7L44.7 18L46.7999 23.3L47.2 24.4L52.0999 22.3L52.2999 22.2L50.2 17.2Z" fill="#DDE1E2"/>
<path d="M72.6999 22.8C72.3999 21.6 71.5999 20.5 70.4999 19.3C69.2999 18.1 68.1999 17.4 66.9999 17.1C65.7999 16.8 64.4999 16.9 63.0999 17.6L57.1999 20.2L52.1999 22.4H51.9999L47.0999 24.5L45.9999 24.9C42.9999 26.2 39.4999 26.2 36.4999 24.9L35.3999 24.4L33.3999 29.6L34.2999 30L36.4999 30.9C39.4999 32.2 42.9999 32.2 45.9999 30.9L48.1999 30L49.0999 29.6L48.6999 28.7L49.0999 29.6L54.1999 27.4L52.2999 22.5V22.4V22.5L54.1999 27.4L55.2999 26.9L60.4999 24.6L64.7999 22.7C65.4999 22.4 66.0999 22.5 66.5999 23.1C67.0999 23.6 67.1999 24.2 66.9999 24.9L65.0999 29.2L62.7999 34.4L62.2999 35.5L67.1999 37.4L67.3999 37.5L69.5999 32.5L72.1999 26.6C72.8999 25.3 73.0999 24 72.6999 22.8Z" fill="#C3C9CB"/>
<path d="M81.7001 44.3999C81.1001 43.2999 80.1001 42.4999 78.6001 41.8999L72.6001 39.4999L67.5001 37.4999L67.4001 37.5999L67.5001 37.4999L67.3001 37.3999L62.4001 35.4999L61.3001 35.1999C58.2001 33.9999 55.8001 31.5999 54.6001 28.4999L54.2001 27.3999L49.1001 29.5999L49.5001 30.4999L50.4001 32.6999C51.6001 35.7999 54.0001 38.1999 57.1001 39.3999L59.3001 40.2999L60.2001 40.6999L65.3001 42.6999L66.6001 39.7999L65.3001 42.6999L66.4001 43.0999L71.7001 45.1999L76.0001 46.8999C76.7001 47.1999 77.1001 47.6999 77.1001 48.4999C77.1001 49.1999 76.7001 49.6999 76.0001 50.0999L71.7001 51.7999L66.4001 53.8999L65.3001 54.2999L67.4001 59.1999L67.5001 59.3999L72.6001 57.3999L78.6001 54.9999C80.1001 54.3999 81.1001 53.5999 81.7001 52.5999C82.3001 51.4999 82.6001 50.1999 82.6001 48.4999C82.6001 46.8999 82.3001 45.4999 81.7001 44.3999Z" fill="#DDE1E2"/>
<path d="M48.1999 66.9999L45.9999 65.9999C42.9999 64.6999 39.4999 64.6999 36.4999 65.9999L34.2999 66.9999L33.3999 67.3999L28.2999 69.5999L27.1999 70.0999L21.9999 72.3999L17.8999 74.1999C17.1999 74.4999 16.5999 74.3999 16.0999 73.7999C15.5999 73.2999 15.4999 72.6999 15.6999 71.9999L17.5999 67.6999L19.8999 62.4999L20.3999 61.3999L15.4999 59.4999L15.2999 59.3999L13.0999 64.3999L10.4999 70.2999C9.89989 71.6999 9.69989 73.0999 9.99989 74.1999C10.2999 75.3999 11.0999 76.4999 12.1999 77.6999C13.3999 78.8999 14.4999 79.5999 15.6999 79.8999C16.8999 80.1999 18.1999 80.0999 19.5999 79.3999L25.4999 76.7999L30.4999 74.5999L30.6999 74.4999L35.5999 72.3999L34.3999 69.2999L35.5999 72.3999L36.5999 71.8999C39.5999 70.5999 43.0999 70.5999 46.0999 71.8999L47.1999 72.3999L49.1999 67.2999L48.1999 66.9999Z" fill="#C3C9CB"/>
<path d="M25.3999 20.0999L19.4999 17.4999C18.0999 16.8999 16.6999 16.6999 15.5999 16.9999C14.3999 17.2999 13.2999 18.0999 12.0999 19.1999C10.8999 20.3999 10.1999 21.4999 9.89994 22.6999C9.59994 23.8999 9.69994 25.1999 10.3999 26.5999L12.9999 32.4999L15.1999 37.4999L15.2999 37.6999L17.3999 42.5999L19.8999 41.5999L17.3999 42.5999L17.8999 43.6999C19.1999 46.6999 19.1999 50.1999 17.8999 53.1999L17.3999 54.1999L22.4999 56.1999L22.8999 55.2999L23.7999 53.0999C25.0999 50.0999 25.0999 46.5999 23.7999 43.5999L22.7999 41.3999L22.3999 40.4999L20.1999 35.3999L19.6999 34.2999L17.3999 29.0999L15.4999 24.7999C15.1999 24.0999 15.2999 23.4999 15.8999 22.9999C16.3999 22.4999 16.9999 22.3999 17.6999 22.5999L21.9999 24.4999L27.1999 26.7999L28.2999 27.2999L30.1999 22.3999L30.2999 22.1999L25.3999 20.0999Z" fill="#C3C9CB"/>
<path d="M60.1999 56.2999L59.2999 56.6999L57.0999 57.5999C53.9999 58.7999 51.5999 61.1999 50.3999 64.2999L49.4999 66.4999L49.0999 67.3999L47.0999 72.4999L46.6999 73.5999L44.5999 78.8999L42.8999 83.1999C42.5999 83.8999 42.0999 84.2999 41.2999 84.2999C40.5999 84.2999 39.9999 83.8999 39.6999 83.1999L37.9999 78.8999L35.8999 73.5999L35.4999 72.4999L30.5999 74.5999L30.3999 74.6999L32.3999 79.7999L34.7999 85.7999C35.3999 87.2999 36.1999 88.2999 37.1999 88.8999C38.2999 89.4999 39.5999 89.7999 41.2999 89.7999C42.8999 89.7999 44.2999 89.4999 45.3999 88.8999C46.4999 88.2999 47.2999 87.2999 47.7999 85.7999L50.1999 79.7999L52.1999 74.6999H52.0999H52.1999L52.2999 74.4999L54.1999 69.5999L51.4999 68.3999L54.1999 69.5999L54.5999 68.4999C55.7999 65.3999 58.1999 62.9999 61.2999 61.7999L62.3999 61.3999L60.1999 56.2999Z" fill="#DDE1E2"/>
</g>
<path d="M102.523 74V25.7598H130.37V31.3855H108.711V46.9967H127.838V52.6224H108.711V74H102.523ZM137.919 74V37.0112H143.685V74H137.919ZM137.778 29.8384V23.1579H143.755V29.8384H137.778ZM158.798 86.7984C155.798 86.7984 153.524 85.9311 151.977 84.1965C150.43 82.5088 149.656 80.4461 149.656 78.0083C149.656 76.2268 150.078 74.6094 150.922 73.1561C151.813 71.7028 152.985 70.6949 154.438 70.1323C153.501 69.5229 152.75 68.7259 152.188 67.7414C151.672 66.7101 151.414 65.6552 151.414 64.577C151.414 63.0768 151.883 61.7876 152.821 60.7093C153.805 59.5842 155.071 58.7403 156.618 58.1778C155.305 57.0995 154.251 55.7634 153.454 54.1695C152.704 52.5287 152.329 50.6769 152.329 48.6141C152.329 44.723 153.407 41.6758 155.563 39.4724C157.72 37.269 160.673 36.1673 164.424 36.1673C166.346 36.1673 168.127 36.6127 169.768 37.5034C171.409 36.6127 172.534 35.6047 173.144 34.4796C173.753 33.3545 174.151 32.2059 174.339 31.0339H179.402C179.402 33.2373 178.84 35.1359 177.714 36.7299C176.636 38.3238 175.136 39.3786 173.214 39.8943C174.245 40.9257 175.042 42.1915 175.605 43.6917C176.214 45.145 176.519 46.7858 176.519 48.6141C176.519 52.4583 175.441 55.4821 173.284 57.6855C171.175 59.8889 168.315 61.0141 164.705 61.0609H160.837C159.9 61.0609 159.103 61.3891 158.446 62.0454C157.79 62.6549 157.462 63.4284 157.462 64.366C157.462 65.2568 157.79 66.0303 158.446 66.6866C159.15 67.3429 159.947 67.6711 160.837 67.6711H171.385C174.058 67.6711 176.167 68.5384 177.714 70.273C179.308 71.9607 180.105 73.9766 180.105 76.3206C180.105 78.2427 179.683 80.0007 178.84 81.5947C178.043 83.1886 176.824 84.4544 175.183 85.392C173.589 86.3296 171.62 86.7984 169.276 86.7984H158.798ZM159.712 81.8056H169.909C171.128 81.8056 172.159 81.3603 173.003 80.4695C173.847 79.6257 174.269 78.6177 174.269 77.4457C174.269 76.2268 173.917 75.1955 173.214 74.3516C172.511 73.5546 171.409 73.1561 169.909 73.1561H159.712C158.259 73.1561 157.181 73.5546 156.477 74.3516C155.774 75.1955 155.423 76.2268 155.423 77.4457C155.423 78.6177 155.774 79.6257 156.477 80.4695C157.181 81.3603 158.259 81.8056 159.712 81.8056ZM164.353 56.2791C166.416 56.2791 167.987 55.5993 169.065 54.2398C170.143 52.8334 170.682 50.9582 170.682 48.6141C170.682 46.1294 170.143 44.2308 169.065 42.9181C167.987 41.6055 166.416 40.9491 164.353 40.9491C162.338 40.9491 160.79 41.6523 159.712 43.0588C158.634 44.4183 158.095 46.2701 158.095 48.6141C158.095 51.0519 158.634 52.9506 159.712 54.3101C160.79 55.6228 162.338 56.2791 164.353 56.2791ZM190.051 74L180.839 37.0112H187.168L191.809 57.8262C192.043 58.8107 192.278 60.0061 192.512 61.4125C192.746 62.7721 192.934 63.991 193.075 65.0692C193.215 66.1006 193.286 66.6163 193.286 66.6163H193.567C193.567 66.6163 193.614 66.1475 193.707 65.2099C193.801 64.2723 193.942 63.1237 194.129 61.7641C194.317 60.4046 194.504 59.0919 194.692 57.8262L198.419 37.0112H205.099L208.897 57.8262C209.037 58.7638 209.178 59.7483 209.319 60.7797C209.459 61.7641 209.577 62.7018 209.67 63.5925C209.811 64.4832 209.905 65.2099 209.952 65.7724C209.998 66.335 210.022 66.6163 210.022 66.6163H210.303C210.303 66.6163 210.327 66.3585 210.374 65.8428C210.467 65.3271 210.561 64.6473 210.655 63.8035C210.795 62.9596 210.96 62.022 211.147 60.9906C211.335 59.9124 211.546 58.8575 211.78 57.8262L216.421 37.0112H222.258L213.046 74H206.647L202.779 52.9037C202.544 51.6379 202.334 50.3487 202.146 49.036C202.005 47.7234 201.888 46.6217 201.794 45.731C201.701 44.8402 201.654 44.3949 201.654 44.3949H201.372C201.372 44.3949 201.326 44.8402 201.232 45.731C201.138 46.6217 200.997 47.7234 200.81 49.036C200.669 50.3018 200.482 51.591 200.247 52.9037L196.45 74H190.051ZM227.474 74V37.0112H233.24V74H227.474ZM227.333 29.8384V23.1579H233.31V29.8384H227.333ZM242.516 74V37.0112H246.876L247.65 41.8633H248.072C248.54 40.4569 249.267 39.1677 250.252 37.9957C251.236 36.7768 252.596 36.1673 254.33 36.1673C255.127 36.1673 255.783 36.2611 256.299 36.4486C256.815 36.6361 257.073 36.7299 257.073 36.7299V42.7072H255.174C253.955 42.7072 252.807 42.9884 251.728 43.551C250.697 44.0667 249.853 44.9574 249.197 46.2232C248.587 47.489 248.283 49.2236 248.283 51.427V74H242.516ZM274.429 74.8439C269.835 74.8439 266.342 73.3437 263.951 70.3433C261.607 67.2961 260.435 62.3502 260.435 55.5056C260.435 48.8485 261.584 43.9729 263.881 40.8788C266.225 37.7378 269.717 36.1673 274.358 36.1673C278.39 36.1673 281.414 37.5268 283.43 40.2459C285.493 42.9181 286.524 47.3483 286.524 53.5366V57.1933H266.483C266.529 61.5063 267.209 64.6707 268.522 66.6866C269.835 68.7025 271.85 69.7104 274.569 69.7104C276.398 69.7104 277.898 68.9838 279.07 67.5305C280.242 66.0303 280.828 63.991 280.828 61.4125H286.524C286.524 65.538 285.399 68.8197 283.149 71.2575C280.945 73.6484 278.039 74.8439 274.429 74.8439ZM266.553 52.0599H280.476C280.476 48.5438 279.961 45.8716 278.929 44.0433C277.898 42.2149 276.374 41.3007 274.358 41.3007C271.78 41.3007 269.881 42.2149 268.662 44.0433C267.49 45.8247 266.787 48.4969 266.553 52.0599Z" fill="#C3C9CB"/>
<defs>
<clipPath id="clip0_359_3203">
<rect width="82.6" height="82.6" fill="white" transform="translate(0 7.19995)"/>
</clipPath>
</defs>
</svg>
