<svg width="381" height="108" viewBox="0 0 381 108" fill="none" xmlns="http://www.w3.org/2000/svg">
<g clip-path="url(#clip0_360_3217)">
<path d="M51.4024 31.3584C49.1903 30.9396 46.8932 30.6883 44.6812 30.6883C40.4273 30.6883 36.1733 31.4422 32.0896 32.95H32.0045C31.4089 33.1176 30.8985 33.3689 30.388 33.6202L30.2178 33.704C29.7074 33.9553 29.1118 34.2066 28.6013 34.4579L28.4312 34.5417C27.9207 34.793 27.4102 35.1281 26.8998 35.3794C26.8147 35.4631 26.7296 35.4631 26.6445 35.5469C26.2191 35.7982 25.7087 36.0495 25.2833 36.3846C25.1982 36.3846 25.1982 36.4684 25.028 36.5521C23.1563 37.8087 21.3697 39.2328 19.6681 40.9082C19.6681 40.9082 19.6681 40.9082 19.583 40.9919C19.6681 40.8244 19.6681 40.6569 19.7532 40.5731V40.4893C20.0935 39.8192 20.3487 39.149 20.7741 38.5626C22.816 34.793 25.6236 31.4422 29.0267 28.7616C29.1969 28.594 29.4521 28.4265 29.6223 28.3427C29.7924 28.2589 29.8775 28.0914 30.0477 28.0076C30.1327 27.9239 30.3029 27.8401 30.388 27.7563C30.6432 27.5888 30.8134 27.4213 31.0686 27.2537C31.4089 27.0024 31.7492 26.8349 32.0896 26.5836C32.5149 26.2485 32.8553 25.9972 33.2807 25.8296C37.1092 23.6516 41.4482 22.2275 46.0424 21.7249C48.4246 24.6569 50.2964 27.9239 51.4024 31.3584Z" fill="#DDE1E2"/>
<path d="M55.7417 67.7983C55.8267 67.0443 55.8267 66.2904 55.8267 65.5365C55.8267 61.348 55.061 57.1595 53.5296 53.1386V53.0548C53.3595 52.5522 53.1042 52.0496 52.9341 51.6307C52.849 51.3794 52.6788 51.1281 52.5937 50.9606C52.5087 50.793 52.4236 50.5417 52.3385 50.2904L52.2534 50.1229C52.1684 50.0391 52.1684 49.9553 52.0833 49.8716V49.7878C51.9982 49.704 51.9982 49.5365 51.9131 49.4527C51.828 49.2852 51.743 49.1176 51.6579 48.9501L51.5728 48.8663C51.4877 48.615 51.3176 48.4475 51.2325 48.1962C51.0623 47.9449 50.8922 47.6098 50.722 47.3585C50.5519 47.1072 50.3817 46.8558 50.2115 46.5208C50.1265 46.437 50.0414 46.2695 49.9563 46.1019L49.8712 46.0182L49.4458 45.5155C49.2757 45.348 49.1906 45.0967 49.0204 44.9291C48.8503 44.7616 48.7652 44.5941 48.5951 44.4265C48.51 44.3428 48.4249 44.259 48.4249 44.1752C48.2547 44.0077 48.1697 43.8401 47.9995 43.6726L47.8293 43.4213C47.6592 43.2538 47.489 43.0024 47.3189 42.8349C46.7233 42.1647 46.1278 41.5784 45.5322 40.9082C45.7024 40.992 45.8725 41.0757 46.0427 41.1595C52.2534 43.9239 57.5283 48.5312 60.9314 54.3113C63.1435 58.081 64.5898 62.3532 65.1003 66.8768C62.1225 69.2223 58.7194 70.9815 55.2312 72.1543C55.2312 72.0705 55.2312 71.903 55.3163 71.8192C55.4013 71.5679 55.4013 71.3166 55.4864 71.0653C55.5715 70.3113 55.7417 69.6412 55.7417 68.8873C55.7417 68.636 55.7417 68.4684 55.8267 68.3009C55.7417 68.1333 55.7417 67.9658 55.7417 67.7983Z" fill="#DDE1E2"/>
<path d="M45.5323 66.2904C45.5323 66.3742 45.4472 66.4579 45.4472 66.4579C45.3621 66.6255 45.3621 66.7093 45.277 66.793C42.4694 72.9082 37.7901 78.1019 31.9197 81.4527C28.0912 83.6307 23.7522 85.0548 19.1579 85.6412C16.7757 82.6255 14.904 79.3585 13.7129 75.9239C15.9249 76.3428 18.2221 76.5941 20.4341 76.5941C24.688 76.5941 28.9419 75.8401 33.0257 74.3323C33.5362 74.1648 34.0467 73.9134 34.5571 73.6621L34.6422 73.5784C34.8974 73.4946 35.1527 73.3271 35.4079 73.2433C35.5781 73.1595 35.7482 73.0757 35.9184 72.992H36.0035L36.0885 72.9082H36.1736C36.2587 72.8244 36.4289 72.8244 36.5139 72.7407H36.599H36.6841C36.8542 72.6569 36.9393 72.5731 37.0244 72.5731C37.1095 72.5731 37.1946 72.4894 37.2796 72.4894H37.3647C37.5349 72.4056 37.7901 72.238 37.9603 72.1543L38.0453 72.0705C38.0453 72.0705 38.1304 71.9867 38.3006 71.903C38.4707 71.8192 38.6409 71.7354 38.726 71.6517L38.8111 71.5679C38.8961 71.5679 38.9812 71.4841 39.0663 71.4004C39.3215 71.2328 39.4917 71.149 39.7469 70.9815C39.9171 70.814 40.1723 70.7302 40.4275 70.5627C40.5977 70.3951 40.7679 70.3113 40.938 70.1438C41.2783 69.8925 41.5336 69.725 41.8739 69.4737L41.959 69.3899C42.1291 69.3061 42.2993 69.1386 42.4694 69.0548L42.5545 68.971C42.7247 68.8035 42.9799 68.636 43.1501 68.4684C44.171 67.547 44.8516 66.9606 45.5323 66.2904Z" fill="#DDE1E2"/>
<path d="M19.7531 66.3742C19.583 66.2904 19.4979 66.2904 19.3277 66.2066L19.2427 66.1229C13.9678 63.7773 9.37354 60.0915 6.05548 55.4841C5.45993 54.6464 4.86438 53.8087 4.35391 52.971C2.14187 49.2014 0.69553 44.9292 0.185059 40.4056C3.24789 38.06 6.56595 36.2171 10.0542 35.1281C9.62878 37.3061 9.37354 39.5679 9.37354 41.7459C9.37354 45.9344 10.1392 50.1229 11.6707 54.1438C12.6065 56.5731 13.7976 58.8349 15.244 61.0129C16.5201 62.8559 17.9665 64.6988 19.7531 66.3742C19.668 66.3742 19.668 66.3742 19.7531 66.3742Z" fill="#DDE1E2"/>
<path d="M29.9628 24.7407C24.5178 28.3427 20.1788 33.4527 17.4563 39.4003C16.3502 41.7459 15.5845 44.1752 15.0741 46.7721C14.6487 48.9501 14.3934 51.2956 14.3934 53.5574V53.6412C14.3084 53.4736 14.2233 53.3061 14.1382 53.1386C12.6919 49.4527 12.0112 45.5993 12.0112 41.6621C12.0112 38.8977 12.3515 36.1333 13.1173 33.4527C14.2233 29.2642 16.2652 25.2433 19.1578 21.6412C22.9864 22.06 26.6447 23.149 29.9628 24.7407Z" fill="#C3C9CB"/>
<path d="M65.1002 40.4055C64.6748 44.1752 63.5688 47.7773 61.9523 51.0443C58.2939 45.683 53.1892 41.4108 47.1487 38.7302C46.0426 38.2275 44.8515 37.8087 43.6604 37.3898C43.4903 37.3061 43.3201 37.3061 43.15 37.2223C42.9798 37.1385 42.8097 37.1385 42.5544 37.0548H42.4693C42.129 36.971 41.8738 36.8872 41.6186 36.8035C41.3633 36.7197 41.023 36.6359 40.6827 36.5521C40.3424 36.4684 40.0871 36.3846 39.7468 36.3846C39.5767 36.3846 39.4065 36.3008 39.2364 36.3008H39.1513C39.0662 36.3008 39.0662 36.3008 38.9811 36.3008C38.7259 36.2171 38.4707 36.2171 38.2154 36.2171H38.1303C37.8751 36.2171 37.7049 36.1333 37.4497 36.1333C37.2796 36.1333 37.1945 36.1333 37.1094 36.1333C36.9392 36.1333 36.684 36.0495 36.4288 36.0495H36.3437C36.0885 36.0495 35.8332 35.9658 35.578 35.9658C34.7272 35.882 33.7913 35.882 32.9405 35.882H32.8555C33.0256 35.7982 33.1958 35.7144 33.3659 35.6307C37.1094 34.2066 41.023 33.5364 45.0217 33.5364C47.8293 33.5364 50.6369 33.8715 53.3594 34.6254C57.3581 35.5469 61.4419 37.5574 65.1002 40.4055Z" fill="#C3C9CB"/>
<path d="M53.1889 65.5364C53.1889 68.3008 52.8486 71.0652 52.0829 73.7459C50.9768 77.9343 48.9349 82.0391 46.0423 85.5574C42.2137 85.1385 38.5554 84.0495 35.2373 82.4579C40.6823 78.8558 45.0213 73.8296 47.7438 67.882C47.9991 67.3794 48.2543 66.793 48.4245 66.2904C48.5096 66.0391 48.5946 65.704 48.7648 65.4527C48.8499 65.2851 48.935 65.1176 48.935 64.8663V64.7825C49.02 64.615 49.02 64.4474 49.1051 64.2799V64.1961C49.1902 63.9448 49.2753 63.6935 49.3603 63.4422C49.4454 63.1909 49.5305 62.8558 49.6156 62.6045C49.6156 62.6045 49.6156 62.437 49.7007 62.3532C49.7857 62.1856 49.7857 62.0181 49.8708 61.8506V61.7668C49.8708 61.683 49.8708 61.5993 49.9559 61.4317C50.041 61.1804 50.041 60.9291 50.126 60.6778C50.2111 60.4265 50.2111 60.1752 50.2962 59.8401C50.3813 59.5888 50.3813 59.3375 50.3813 59.1699C50.4664 58.7511 50.4664 58.416 50.5514 58.0809V57.9972C50.5514 57.8296 50.6365 57.5783 50.6365 57.4108V57.327C50.6365 57.0757 50.7216 56.8244 50.7216 56.5731C50.8067 55.7354 50.8067 54.8139 50.8067 53.9762V53.8925C50.8918 54.06 50.9768 54.2275 51.0619 54.3951C52.5082 57.7459 53.1889 61.683 53.1889 65.5364Z" fill="#C3C9CB"/>
<path d="M32.6852 71.5679C32.515 71.6516 32.3449 71.7354 32.1747 71.8192C28.4312 73.2433 24.5176 73.9134 20.5189 73.9134C17.7114 73.9134 14.9038 73.5784 12.1812 72.8244C7.84224 71.7354 3.75847 69.7249 0.100098 66.8768C0.52549 63.1071 1.63151 59.5051 3.248 56.238C6.90638 61.5993 12.0962 65.8715 18.0517 68.5522C20.4339 69.6412 22.9011 70.3951 25.5386 70.8977C27.8357 71.4003 30.2179 71.6516 32.6852 71.5679C32.6001 71.5679 32.6001 71.6516 32.6852 71.5679Z" fill="#C3C9CB"/>
</g>
<path d="M93.2853 28.5123H104.994L118.935 75.1412H111.14L106.883 60.8916H91.8088L87.7571 75.1412H79.7567L93.2853 28.5123ZM105.269 54.917L98.9851 32.049L93.3196 54.917H105.269ZM122.839 25.7311H129.947V69.3727L131.973 70.8148V75.1412H130.016L129.947 75.0725V75.1412C127.681 75.1412 125.93 74.6834 124.693 73.7677C123.457 72.8521 122.839 71.3413 122.839 69.2353V25.7311ZM143.947 34.1092C143.306 34.1092 142.699 33.9947 142.127 33.7658C141.577 33.5369 141.085 33.2278 140.65 32.8387C140.238 32.4496 139.906 32.0032 139.655 31.4996C139.403 30.9731 139.277 30.4123 139.277 29.8171C139.277 29.199 139.403 28.6268 139.655 28.1003C139.906 27.5738 140.238 27.116 140.65 26.7268C141.085 26.3377 141.577 26.0401 142.127 25.8341C142.699 25.6052 143.306 25.4907 143.947 25.4907C144.588 25.4907 145.194 25.6052 145.766 25.8341C146.339 26.0401 146.831 26.3377 147.243 26.7268C147.678 27.116 148.021 27.5738 148.273 28.1003C148.525 28.6268 148.651 29.199 148.651 29.8171C148.651 30.4123 148.525 30.9731 148.273 31.4996C148.021 32.0032 147.678 32.4496 147.243 32.8387C146.831 33.2278 146.339 33.5369 145.766 33.7658C145.194 33.9947 144.588 34.1092 143.947 34.1092ZM139.998 40.0494H147.14V69.3727L149.166 70.8148V75.1412H147.209L147.14 75.0725V75.1412C144.874 75.1412 143.111 74.6834 141.852 73.7677C140.616 72.8521 139.998 71.3413 139.998 69.2353V40.0494ZM159.285 45.3715H154.787C154.764 45.1197 154.742 44.845 154.719 44.5474C154.696 44.2956 154.673 43.998 154.65 43.6547C154.65 43.3113 154.65 42.9336 154.65 42.5216C154.65 42.1095 154.661 41.7318 154.684 41.3885C154.707 41.0222 154.742 40.5758 154.787 40.0494H159.285V34.5899L163.234 30.1261H166.29V40.0494H176.007C176.053 40.2783 176.087 40.553 176.11 40.8734C176.156 41.1939 176.179 41.5029 176.179 41.8005C176.179 42.327 176.122 42.8077 176.007 43.2426C175.916 43.6776 175.813 44.0553 175.698 44.3757C175.561 44.742 175.401 45.0739 175.217 45.3715H166.29V65.2866C166.29 66.9577 166.565 68.1709 167.114 68.9263C167.686 69.6817 168.591 70.0594 169.827 70.0594C170.353 70.0594 170.903 70.0022 171.475 69.8877C172.07 69.7504 172.631 69.5901 173.157 69.407C173.752 69.201 174.359 68.9721 174.977 68.7203C175.435 69.3154 175.79 69.8991 176.042 70.4714C176.316 71.0437 176.511 71.5587 176.625 72.0166C176.763 72.5431 176.843 73.0352 176.866 73.493C176.225 73.928 175.504 74.3171 174.702 74.6605C173.993 74.958 173.146 75.2213 172.162 75.4502C171.177 75.702 170.044 75.8279 168.762 75.8279C166.977 75.8279 165.477 75.599 164.264 75.1412C163.074 74.7062 162.101 74.0539 161.346 73.184C160.613 72.2913 160.087 71.1925 159.766 69.8877C159.446 68.56 159.285 67.0378 159.285 65.321V45.3715ZM183.208 25.6967H190.591V37.2338L190.247 42.4872H190.453C190.613 42.3499 190.991 42.0981 191.586 41.7318C192.204 41.3427 192.96 40.9535 193.853 40.5644C194.768 40.1753 195.787 39.8319 196.908 39.5343C198.053 39.2367 199.232 39.0879 200.445 39.0879C202.368 39.0879 204.062 39.3741 205.527 39.9463C207.015 40.5186 208.262 41.3427 209.27 42.4186C210.277 43.4715 211.032 44.742 211.536 46.2299C212.062 47.7178 212.326 49.3889 212.326 51.243V75.1412H204.943V51.9641C204.943 49.469 204.44 47.6377 203.432 46.4703C202.448 45.2799 200.811 44.6848 198.522 44.6848C197.424 44.6848 196.393 44.7878 195.432 44.9938C194.493 45.1769 193.658 45.3944 192.925 45.6462C192.078 45.9209 191.3 46.2414 190.591 46.6076V75.1412H183.208V25.6967ZM219.87 57.9386C219.87 54.6423 220.271 51.8039 221.072 49.4232C221.873 47.0425 222.995 45.0854 224.437 43.5517C225.879 42.018 227.596 40.8963 229.587 40.1867C231.602 39.4542 233.811 39.0879 236.214 39.0879C238.434 39.0879 240.415 39.4656 242.154 40.221C243.917 40.9535 245.405 41.9951 246.618 43.3456C247.831 44.6962 248.758 46.31 249.399 48.1871C250.04 50.0641 250.361 52.1358 250.361 54.402C250.361 55.1803 250.326 55.9013 250.258 56.5652C250.189 57.229 250.109 57.8013 250.017 58.282C249.926 58.8543 249.823 59.3693 249.708 59.8271L227.184 59.7241C227.206 61.7614 227.424 63.4553 227.836 64.8059C228.248 66.1336 228.855 67.1866 229.656 67.9649C230.48 68.7432 231.51 69.2925 232.746 69.613C233.982 69.9106 235.447 70.0594 237.141 70.0594C238.583 70.0594 239.877 69.9678 241.021 69.7847C242.166 69.6016 243.139 69.3841 243.94 69.1323C244.855 68.8576 245.679 68.5371 246.412 68.1709C246.755 68.9721 247.019 69.716 247.202 70.4027C247.408 71.0895 247.557 71.6846 247.648 72.1882C247.74 72.7834 247.808 73.3099 247.854 73.7677C247.099 74.1569 246.183 74.5002 245.107 74.7978C244.192 75.0496 243.07 75.2785 241.742 75.4845C240.415 75.7134 238.881 75.8279 237.141 75.8279C234.394 75.8279 231.945 75.5189 229.793 74.9008C227.664 74.2828 225.856 73.2756 224.368 71.8792C222.903 70.46 221.781 68.6173 221.003 66.3511C220.248 64.062 219.87 61.2578 219.87 57.9386ZM243.013 54.711V53.5436C243.013 52.1014 242.83 50.831 242.463 49.7322C242.12 48.6106 241.639 47.672 241.021 46.9166C240.403 46.1612 239.671 45.589 238.824 45.1998C237.977 44.8107 237.061 44.6161 236.077 44.6161C234.635 44.6161 233.364 44.8107 232.265 45.1998C231.167 45.5661 230.24 46.1612 229.484 46.9853C228.752 47.7865 228.202 48.828 227.836 50.1099C227.47 51.3918 227.287 52.9255 227.287 54.711H243.013ZM255.536 43.5517V39.6717H261.854L264.807 42.6589L265.734 42.1095C265.848 41.9951 266.18 41.7776 266.73 41.4571C267.302 41.1138 268.011 40.7704 268.858 40.4271C269.705 40.0608 270.655 39.7403 271.708 39.4656C272.784 39.1909 273.872 39.0536 274.97 39.0536C277.008 39.0536 278.679 39.3512 279.983 39.9463C281.311 40.5415 282.467 41.3999 283.451 42.5216C283.818 42.224 284.356 41.8806 285.065 41.4915C285.775 41.0794 286.587 40.6903 287.503 40.324C288.442 39.9578 289.449 39.6602 290.525 39.4313C291.601 39.1795 292.688 39.0536 293.787 39.0536C295.709 39.0536 297.461 39.3397 299.04 39.912C300.642 40.4843 302.004 41.3084 303.126 42.3842C304.271 43.4372 305.152 44.7077 305.77 46.1956C306.411 47.6835 306.731 49.3545 306.731 51.2087V75.1412H299.349V51.9298C299.349 49.4575 298.685 47.6263 297.358 46.4359C296.03 45.2456 294.222 44.6504 291.932 44.6504C290.582 44.6504 289.311 44.7649 288.121 44.9938C286.954 45.1998 286.084 45.4287 285.512 45.6805C285.832 46.413 286.084 47.1913 286.267 48.0154C286.45 48.8395 286.542 49.675 286.542 50.522V75.1412H279.159V51.243C279.159 49.0226 278.702 47.3745 277.786 46.2986C276.87 45.1998 275.302 44.6504 273.082 44.6504C272.029 44.6504 271.044 44.7534 270.129 44.9595C269.213 45.1426 268.423 45.3601 267.76 45.6119C266.981 45.8865 266.26 46.1956 265.596 46.5389V75.1412H258.248V46.3329L255.536 43.5517ZM314.276 57.9386C314.276 54.6423 314.676 51.8039 315.478 49.4232C316.279 47.0425 317.4 45.0854 318.843 43.5517C320.285 42.018 322.002 40.8963 323.993 40.1867C326.007 39.4542 328.216 39.0879 330.62 39.0879C332.84 39.0879 334.82 39.4656 336.56 40.221C338.323 40.9535 339.811 41.9951 341.024 43.3456C342.237 44.6962 343.164 46.31 343.805 48.1871C344.446 50.0641 344.767 52.1358 344.767 54.402C344.767 55.1803 344.732 55.9013 344.664 56.5652C344.595 57.229 344.515 57.8013 344.423 58.282C344.332 58.8543 344.229 59.3693 344.114 59.8271L321.59 59.7241C321.612 61.7614 321.83 63.4553 322.242 64.8059C322.654 66.1336 323.261 67.1866 324.062 67.9649C324.886 68.7432 325.916 69.2925 327.152 69.613C328.388 69.9106 329.853 70.0594 331.547 70.0594C332.989 70.0594 334.283 69.9678 335.427 69.7847C336.572 69.6016 337.545 69.3841 338.346 69.1323C339.261 68.8576 340.085 68.5371 340.818 68.1709C341.161 68.9721 341.425 69.716 341.608 70.4027C341.814 71.0895 341.962 71.6846 342.054 72.1882C342.146 72.7834 342.214 73.3099 342.26 73.7677C341.505 74.1569 340.589 74.5002 339.513 74.7978C338.597 75.0496 337.476 75.2785 336.148 75.4845C334.82 75.7134 333.287 75.8279 331.547 75.8279C328.8 75.8279 326.351 75.5189 324.199 74.9008C322.07 74.2828 320.262 73.2756 318.774 71.8792C317.309 70.46 316.187 68.6173 315.409 66.3511C314.654 64.062 314.276 61.2578 314.276 57.9386ZM337.419 54.711V53.5436C337.419 52.1014 337.235 50.831 336.869 49.7322C336.526 48.6106 336.045 47.672 335.427 46.9166C334.809 46.1612 334.077 45.589 333.23 45.1998C332.383 44.8107 331.467 44.6161 330.483 44.6161C329.041 44.6161 327.77 44.8107 326.671 45.1998C325.573 45.5661 324.645 46.1612 323.89 46.9853C323.158 47.7865 322.608 48.828 322.242 50.1099C321.876 51.3918 321.693 52.9255 321.693 54.711H337.419ZM350.388 73.5617C350.388 73.0352 350.434 72.4629 350.526 71.8449C350.594 71.3184 350.697 70.7232 350.835 70.0594C350.995 69.3727 351.224 68.663 351.521 67.9305C352.528 68.3197 353.581 68.663 354.68 68.9606C355.619 69.2124 356.637 69.4528 357.736 69.6817C358.835 69.8877 359.922 69.9907 360.998 69.9907C361.96 69.9907 362.852 69.9564 363.676 69.8877C364.5 69.819 365.21 69.6359 365.805 69.3383C366.423 69.0178 366.904 68.5486 367.247 67.9305C367.591 67.2896 367.762 66.4083 367.762 65.2866C367.762 63.9361 367.339 62.8716 366.492 62.0933C365.668 61.315 364.226 60.7313 362.166 60.3422C360.037 59.9301 358.24 59.3808 356.775 58.694C355.333 58.0073 354.154 57.2176 353.238 56.3248C352.345 55.4092 351.693 54.3905 351.281 53.2689C350.892 52.1472 350.697 50.9454 350.697 49.6635C350.697 47.7407 351.006 46.104 351.624 44.7534C352.242 43.4029 353.135 42.3156 354.303 41.4915C355.493 40.6445 356.958 40.0379 358.698 39.6717C360.46 39.2825 362.475 39.0879 364.741 39.0879C366.32 39.0879 367.717 39.2024 368.93 39.4313C370.166 39.6373 371.196 39.8662 372.02 40.118C372.982 40.4156 373.817 40.759 374.527 41.1481C374.458 41.6517 374.332 42.2011 374.149 42.7963C373.989 43.2999 373.771 43.8721 373.497 44.5131C373.245 45.154 372.901 45.8064 372.466 46.4703C371.848 46.104 371.139 45.7835 370.338 45.5088C369.651 45.257 368.827 45.0396 367.865 44.8565C366.904 44.6504 365.805 44.5474 364.569 44.5474C363.608 44.5474 362.715 44.5932 361.891 44.6848C361.09 44.7763 360.392 44.9824 359.796 45.3028C359.224 45.6233 358.778 46.1155 358.457 46.7793C358.137 47.4202 357.977 48.3015 357.977 49.4232C357.977 49.9726 358.045 50.4762 358.183 50.934C358.343 51.3689 358.64 51.7695 359.075 52.1358C359.533 52.502 360.163 52.8454 360.964 53.1659C361.788 53.4634 362.875 53.761 364.226 54.0586C366.332 54.5164 368.083 55.0429 369.479 55.6381C370.898 56.2333 372.02 56.9543 372.844 57.8013C373.691 58.6482 374.286 59.644 374.63 60.7886C374.996 61.9102 375.179 63.2493 375.179 64.8059C375.179 66.477 374.916 67.9878 374.389 69.3383C373.863 70.6889 373.039 71.8449 371.917 72.8063C370.795 73.7677 369.353 74.5117 367.591 75.0382C365.828 75.5647 363.699 75.8279 361.204 75.8279C359.602 75.8279 358.137 75.7134 356.809 75.4845C355.504 75.2556 354.371 74.9924 353.41 74.6948C352.288 74.3743 351.281 73.9966 350.388 73.5617Z" fill="#C3C9CB"/>
<defs>
<clipPath id="clip0_360_3217">
<rect width="65" height="64" fill="white" transform="translate(0.100098 21.6412)"/>
</clipPath>
</defs>
</svg>
