<svg width="381" height="78" viewBox="0 0 381 78" fill="none" xmlns="http://www.w3.org/2000/svg">
<g clip-path="url(#clip0_360_3219)">
<path d="M57.5005 39.3C58.8005 38.9 60.3005 38.9 61.7005 39.4C62.2005 39.6 62.7005 39.8 63.2005 40.1C63.7005 40.4 64.2005 40.6 64.6005 41C65.6005 41.6 66.4005 42.4 67.2005 43.2C68.8005 44.9 70.2005 47.1 71.0005 49.6C71.8005 52.1 72.2005 55.1 71.8005 58.1C71.5005 61.2 70.5005 64.3 68.8005 67.3C67.8005 69.1 66.1005 70.5 64.4005 71.2C64.0005 71.4 63.5005 71.5 63.1005 71.6C62.7005 71.7 62.2005 71.7 61.8005 71.7C61.0005 71.7 60.2005 71.5 59.5005 71.2C58.2005 70.5 57.6005 69.3 57.5005 67.9C57.4005 66.6 57.9005 65.1 58.8005 63.8C59.9005 62.1 60.7005 60.3 61.1005 58.5C61.5005 56.7 61.5005 54.8 61.2005 53.1C61.1005 52.7 61.0005 52.2 60.9005 51.8C60.8005 51.6 60.8005 51.4 60.7005 51.2C60.6005 51 60.6005 50.8 60.5005 50.6C60.3005 50.2 60.2005 49.8 60.0005 49.5C59.8005 49.1 59.6005 48.8 59.4005 48.4C58.5005 47 57.5005 45.9 56.2005 44.9C55.2005 44.1 54.5005 43.2 54.3005 42.5C54.0005 41.7 54.2005 41.1 54.9005 40.4C55.2005 40.1 55.6005 39.9 56.0005 39.6C56.5005 39.6 57.0005 39.4 57.5005 39.3Z" fill="#DDE1E2"/>
<path d="M48.6004 54.1C49.5004 55 50.4004 56.3 50.6004 57.8C50.7004 58.4 50.7004 58.9 50.7004 59.4C50.7004 60 50.7004 60.5 50.7004 61.1C50.7004 61.7 50.6004 62.2 50.5004 62.8C50.4004 63.4 50.3004 63.9 50.1004 64.5C49.4004 66.8 48.2004 69 46.4004 71C44.6004 73 42.2004 74.7 39.4004 76C36.6004 77.2 33.3004 78 29.9004 78C27.9004 78 25.8004 77.3 24.3004 76.1C22.8004 74.9 21.9004 73.4 21.8004 71.9C21.7004 70.4 22.5004 69.3 23.6004 68.5C24.2004 68.1 24.8004 67.9 25.5004 67.7C26.2004 67.5 27.0004 67.5 27.8004 67.5C29.8004 67.6 31.8004 67.4 33.5004 66.8C34.4004 66.5 35.2004 66.1 36.0004 65.7C36.4004 65.5 36.8004 65.2 37.1004 65C37.5004 64.8 37.8004 64.5 38.1004 64.2C38.8004 63.7 39.4004 63 39.9004 62.4C40.2004 62.1 40.4004 61.7 40.6004 61.4C40.8004 61.1 41.0004 60.7 41.2004 60.4C42.0004 59 42.4004 57.4 42.7004 55.9C42.8004 55.2 42.9004 54.7 43.1004 54.2C43.2004 54 43.3004 53.7 43.4004 53.5C43.5004 53.4 43.5004 53.3 43.6004 53.2C43.7004 53.1 43.7004 53 43.8004 53C44.3004 52.4 45.0004 52.2 45.9004 52.5C46.1004 52.6 46.3004 52.6 46.5004 52.7C46.7004 52.8 46.9004 52.9 47.1004 53C47.8004 53.4 48.3004 53.7 48.6004 54.1Z" fill="#C3C9CB"/>
<path d="M31.4003 53.8C31.1003 55.1 30.4003 56.4 29.2003 57.4C27.5003 58.7 25.4003 59.8 23.1003 60.3C20.8003 60.8 18.3003 60.9 15.6003 60.4C13.0003 59.9 10.3003 58.7 7.80029 56.9C5.40029 55 3.10029 52.6 1.30029 49.6C0.300293 47.8 -0.099707 45.7 0.100293 43.8C0.100293 43.6 0.200293 43.3 0.200293 43.1C0.300293 42.9 0.300293 42.7 0.400293 42.4C0.500293 42 0.700293 41.6 0.900293 41.2C1.30029 40.5 1.90029 39.9 2.50029 39.5C3.80029 38.7 5.10029 38.8 6.30029 39.4C6.90029 39.7 7.50029 40.1 7.90029 40.7C8.20029 41 8.40029 41.3 8.60029 41.6C8.80029 41.9 9.00029 42.3 9.20029 42.6C10.1003 44.4 11.3003 46 12.7003 47.2C14.1003 48.5 15.7003 49.4 17.3003 50C18.1003 50.3 18.9003 50.5 19.8003 50.6C20.6003 50.7 21.5003 50.8 22.3003 50.7C23.1003 50.7 23.9003 50.6 24.7003 50.4C25.5003 50.2 26.2003 50 26.9003 49.7C27.5003 49.5 28.1003 49.3 28.6003 49.2C28.9003 49.2 29.1003 49.1 29.3003 49.2C29.5003 49.2 29.7003 49.2 29.9003 49.3C30.7003 49.5 31.2003 49.9 31.4003 50.8C31.7003 51.7 31.7003 52.8 31.4003 53.8Z" fill="#DDE1E2"/>
<path d="M23.0004 38.7001C21.7004 39.1001 20.2004 39.1 18.8004 38.6C18.3004 38.4 17.8004 38.2001 17.3004 37.9001C16.8004 37.6001 16.3004 37.4 15.9004 37C14.9004 36.4 14.1004 35.6 13.3004 34.8C11.7004 33.1 10.3004 30.9 9.50038 28.4C8.70038 25.9 8.30038 22.9 8.70038 19.9C9.00038 16.8 10.0004 13.7 11.7004 10.7C12.7004 8.90005 14.4004 7.50005 16.1004 6.80005C16.5004 6.60005 17.0004 6.50005 17.4004 6.40005C17.8004 6.30005 18.3004 6.30005 18.7004 6.30005C19.5004 6.30005 20.3004 6.50005 21.0004 6.80005C22.3004 7.50005 22.9004 8.70005 23.0004 10.1C23.1004 11.4 22.6004 12.9 21.7004 14.2C20.6004 15.9 19.8004 17.7 19.4004 19.5C19.0004 21.3 19.0004 23.2 19.3004 24.9C19.4004 25.3 19.5004 25.8001 19.6004 26.2001C19.7004 26.4001 19.7004 26.6 19.8004 26.8C19.9004 27 19.9004 27.2 20.0004 27.4C20.2004 27.8 20.3004 28.2 20.5004 28.5C20.7004 28.9 20.9004 29.2 21.1004 29.6C22.0004 31 23.0004 32.1 24.3004 33.1C25.3004 33.9 26.0004 34.8 26.2004 35.5C26.5004 36.3 26.3004 36.9 25.6004 37.6C25.3004 37.9 24.9004 38.1001 24.5004 38.4001C24.0004 38.4001 23.5004 38.6001 23.0004 38.7001Z" fill="#C3C9CB"/>
<path d="M31.9003 23.9C31.0003 23 30.1003 21.7 29.9003 20.2C29.8003 19.6 29.8003 19.1 29.8003 18.6C29.8003 18 29.8003 17.5 29.8003 16.9C29.8003 16.3 29.9003 15.8 30.0003 15.2C30.1003 14.6 30.2003 14.1 30.4003 13.5C31.1003 11.2 32.3003 9 34.1003 7C35.9003 5 38.3003 3.3 41.1003 2C43.9003 0.8 47.2003 0 50.6003 0C52.6003 0 54.7003 0.7 56.2003 1.9C57.7003 3.1 58.6003 4.6 58.7003 6.1C58.8003 7.6 58.0003 8.7 56.9003 9.5C56.3003 9.9 55.7003 10.1 55.0003 10.3C54.3003 10.5 53.5003 10.5 52.7003 10.5C50.7003 10.4 48.7003 10.6 47.0003 11.2C46.1003 11.5 45.3003 11.9 44.5003 12.3C44.1003 12.5 43.7003 12.8 43.4003 13C43.0003 13.2 42.7003 13.5 42.4003 13.8C41.7003 14.3 41.1003 15 40.6003 15.6C40.3003 15.9 40.1003 16.3 39.9003 16.6C39.7003 16.9 39.5003 17.3 39.3003 17.6C38.5003 19 38.1003 20.6 37.8003 22.1C37.7003 22.8 37.6003 23.3 37.4003 23.8C37.3003 24 37.2003 24.3 37.1003 24.5C37.0003 24.6 37.0003 24.7 36.9003 24.8C36.8003 24.9 36.8003 25 36.7003 25C36.2003 25.6 35.5003 25.8 34.6003 25.5C34.4003 25.4 34.2003 25.4 34.0003 25.3C33.8003 25.2 33.6003 25.1 33.4003 25C32.7003 24.6 32.3003 24.3 31.9003 23.9Z" fill="#DDE1E2"/>
<path d="M49.1005 24.2C49.4005 22.9 50.1005 21.6 51.3005 20.6C53.0005 19.3 55.1005 18.2 57.4005 17.7C59.7005 17.2 62.2005 17.1 64.9005 17.6C67.5005 18.1 70.2005 19.3 72.7005 21.1C75.2005 22.9 77.4005 25.4 79.2005 28.3C80.2005 30.1 80.6005 32.2 80.4005 34.1C80.4005 34.3 80.3005 34.6 80.3005 34.8C80.2005 35 80.2005 35.2 80.1005 35.5C80.0005 35.9 79.8005 36.3 79.6005 36.7C79.2005 37.4 78.6005 38 78.0005 38.4C76.7005 39.2 75.4005 39.1 74.2005 38.5C73.6005 38.2 73.0005 37.8 72.6005 37.2C72.3005 36.9 72.1005 36.6 71.9005 36.3C71.7005 36 71.5005 35.6 71.3005 35.3C70.4005 33.5 69.2005 31.9 67.8005 30.7C66.4005 29.4 64.8005 28.5 63.2005 27.9C62.4005 27.6 61.6005 27.4 60.7005 27.3C59.9005 27.2 59.1005 27.1 58.2005 27.2C57.4005 27.2 56.6005 27.3 55.8005 27.5C55.0005 27.7 54.3005 27.9 53.6005 28.2C53.0005 28.4 52.4005 28.6 51.9005 28.7C51.6005 28.7 51.4005 28.8 51.2005 28.7C51.0005 28.7 50.8005 28.7 50.6005 28.6C49.8005 28.4 49.3005 28 49.1005 27.1C48.8005 26.3 48.9005 25.3 49.1005 24.2Z" fill="#C3C9CB"/>
</g>
<path d="M96.3431 17.8281H131.407V26.3722H118.536V58.2741H109.936V26.3722H96.3431V17.8281ZM152.848 42.9612C152.848 41.9625 152.718 41.1488 152.459 40.52C152.237 39.8912 151.923 39.3919 151.516 39.022C151.109 38.6521 150.647 38.3932 150.129 38.2453C149.648 38.0973 149.167 38.0233 148.686 38.0233H146.079C145.746 38.0233 145.358 38.0788 144.914 38.1898C144.47 38.2638 144.044 38.3932 143.638 38.5781C143.268 38.7631 142.953 39.0035 142.694 39.2994C142.435 39.5953 142.306 39.9282 142.306 40.2981V58.2741H134.816V17.8281H142.306V33.0855C142.861 32.7896 143.527 32.5307 144.303 32.3087C145.117 32.0498 145.931 31.9204 146.745 31.9204H149.741C150.85 31.9204 151.941 32.1053 153.014 32.4752C154.124 32.8451 155.122 33.4369 156.01 34.2506C156.898 35.0273 157.619 36.063 158.174 37.3576C158.729 38.6151 159.006 40.1501 159.006 41.9625V58.2741H152.848V42.9612ZM175.814 31.8649C177.109 31.8649 178.348 32.0683 179.532 32.4752C180.715 32.882 181.751 33.4554 182.638 34.1951C183.563 34.9349 184.284 35.8596 184.802 36.9692C185.357 38.0418 185.634 39.2439 185.634 40.5755V46.8449H169.156V49.397C169.156 49.7299 169.212 50.1368 169.323 50.6176C169.471 51.0985 169.711 51.5608 170.044 52.0047C170.377 52.4115 170.839 52.7629 171.431 53.0588C172.023 53.3547 172.781 53.5027 173.706 53.5027H175.87C178.533 53.5027 179.864 52.2821 179.864 49.8409H186.134V51.5053C186.134 52.8369 185.875 53.9465 185.357 54.8342C184.839 55.6849 184.155 56.3692 183.304 56.887C182.454 57.4049 181.473 57.7562 180.364 57.9412C179.254 58.1631 178.107 58.2741 176.924 58.2741H171.598C170.673 58.2741 169.711 58.1446 168.713 57.8857C167.751 57.6268 166.826 57.1829 165.939 56.5541C165.088 55.9623 164.348 55.1671 163.719 54.1684C163.09 53.1328 162.665 51.8752 162.443 50.3957V40.5755C162.443 39.3549 162.721 38.2268 163.275 37.1911C163.83 36.1185 164.57 35.1938 165.495 34.417C166.419 33.6033 167.492 32.9745 168.713 32.5307C169.97 32.0868 171.283 31.8649 172.652 31.8649H175.814ZM169.156 42.6838H179.31V41.0193C179.31 40.5385 179.18 40.0761 178.921 39.6323C178.699 39.1515 178.385 38.7446 177.978 38.4117C177.571 38.0418 177.109 37.7644 176.591 37.5795C176.073 37.3576 175.555 37.2466 175.038 37.2466H173.262C172.744 37.2466 172.226 37.3576 171.709 37.5795C171.228 37.7644 170.784 38.0418 170.377 38.4117C170.007 38.7446 169.711 39.1515 169.489 39.6323C169.267 40.0761 169.156 40.5385 169.156 41.0193V42.6838ZM218.671 23.3762H200.972V34.4725H216.562V39.8542H200.972V58.2741H191.596V17.8836H218.671V23.3762ZM229.55 58.2741H222.282V17.8281H229.55V58.2741ZM243.063 58.2741C241.879 58.2741 240.733 58.1076 239.623 57.7747C238.551 57.4419 237.607 56.924 236.794 56.2213C235.98 55.5555 235.333 54.7048 234.852 53.6691C234.371 52.5965 234.13 51.3389 234.13 49.8964V40.0207C234.13 38.874 234.389 37.8014 234.907 36.8027C235.462 35.8041 236.183 34.9349 237.071 34.1951C237.996 33.4554 239.068 32.882 240.289 32.4752C241.51 32.0683 242.804 31.8649 244.173 31.8649H247.612C249.166 31.8649 250.572 32.0868 251.829 32.5307C253.124 32.9745 254.233 33.5663 255.158 34.3061C256.083 35.0458 256.785 35.9335 257.266 36.9692C257.784 38.0048 258.043 39.096 258.043 40.2426V50.4512C258.043 51.5978 257.84 52.652 257.433 53.6136C257.026 54.5753 256.434 55.389 255.657 56.0548C254.881 56.7576 253.956 57.2939 252.883 57.6638C251.811 58.0706 250.608 58.2741 249.277 58.2741H243.063ZM247.335 53.2253C247.964 53.2253 248.5 53.1143 248.944 52.8924C249.425 52.6335 249.813 52.3376 250.109 52.0047C250.442 51.6348 250.682 51.2464 250.83 50.8396C250.978 50.3957 251.052 49.9703 251.052 49.5635V41.6851C251.052 40.7974 250.682 39.9467 249.943 39.133C249.24 38.2822 248.241 37.8569 246.947 37.8569H245.393C244.875 37.8569 244.358 37.9309 243.84 38.0788C243.359 38.2268 242.897 38.4672 242.453 38.8001C242.046 39.096 241.713 39.4843 241.454 39.9652C241.195 40.446 241.066 41.0378 241.066 41.7406V49.2861C241.066 49.582 241.103 49.9703 241.177 50.4512C241.288 50.895 241.473 51.3204 241.731 51.7273C242.027 52.1341 242.416 52.4855 242.897 52.7814C243.414 53.0773 244.062 53.2253 244.838 53.2253H247.335ZM291.195 31.9204H301.459L291.417 58.2741H284.316L280.82 49.1196L277.325 58.2741H270.612L260.57 31.9204H268.448C269.373 34.3246 270.279 36.7103 271.167 39.0775C272.054 41.4077 272.979 43.7749 273.941 46.1791C273.978 46.0312 274.089 45.7168 274.273 45.2359C274.495 44.7551 274.736 44.1818 274.995 43.516C275.254 42.8132 275.531 42.055 275.827 41.2413C276.16 40.3905 276.493 39.5398 276.826 38.6891L274.273 31.9204H280.155C281.079 34.3246 281.985 36.7103 282.873 39.0775C283.761 41.4077 284.686 43.7749 285.647 46.1791L291.195 31.9204Z" fill="#C3C9CB"/>
<defs>
<clipPath id="clip0_360_3219">
<rect width="80.3" height="78" fill="white" transform="translate(0.100098)"/>
</clipPath>
</defs>
</svg>
